<?xml version="1.0" encoding="UTF-8"?>
<svg id="Capa_1" data-name="Capa 1" xmlns="http://www.w3.org/2000/svg" viewBox="0 0 498 464">
  <defs>
    <style>
      .cls-1 {
        stroke-width: 0px;
      }

      .cls-1, .cls-2 {
        fill: #f72585;
      }

      .cls-3 {
        fill: none;
        stroke-width: 21px;
      }

      .cls-3, .cls-2 {
        stroke: #f72585;
        stroke-miterlimit: 10;
      }
    </style>
  </defs>
  <path class="cls-2" d="M200.9,388.55c0,21.21-.28,42.43.13,63.64.14,7.27-2.41,9.44-9.35,8.75-11.25-1.11-22.66-.91-33.8-2.57-22.16-3.31-44.03-7.92-62.67-21.7-9.53-7.05-14.39-16.09-14.36-28.2.16-67.89.19-135.77-.02-203.66-.04-12.46,4.64-22.05,14.71-28.84,6.06-4.08,12.39-8.37,19.23-10.56,64.27-20.57,126.92-21.08,185.4,14.35,12.28-6.07,24.33-13.58,37.4-18.16,25.74-9.02,52.59-10.25,79.62-7.26,18.69,2.07,36.81,6.33,53.49,15.33,15.3,8.26,23.69,19.91,23.47,38.73-.7,59.63-.67,170.27-.66,190.19,0,1.46-1.28,2.19-2.73,2.39-3.72.52-6.5-.37-8.27-1.48-16-10-19.52-9.83-33.25-14.43-25.65-8.59-52.16-10.64-78.77-6.72-13.86,2.04-49.98,11.15-60.98,20.15-1.95,1.59-5,3-9,3-2.45,0-7.54-1.77-9-3-11.11-9.35-60.22-25.46-90.6-20.21,0,4.16,0,7.21,0,10.26ZM482.36,387.41c0-2.78,0-5.73,0-8.68,0-57.1.14-114.24.26-171.3.03-12.88-5.3-20.81-15.58-26.76-15.48-8.95-32.47-13.04-50.03-14.83-28.72-2.92-57.07-1.57-84.25,9.34-5.47,2.19-10.75,5.08-15.69,8.3-6.98,4.56-10.35,10.64-10.27,19.8.45,57.38.22,114.76.22,172.15,0,3.61,0,7.22,0,11.12,59.3-28.71,116.8-28.91,175.34.85ZM200.78,244.85c.02,37.05.19,74.09-.09,111.14-.05,6.64,2,8.56,8.56,8.9,28.98,1.49,57.96,5.77,84.25,22.62.2-4.36-.21-7-.21-9.96.02-56.28-.37-112.56.27-168.83.15-13.52-5.44-22.35-16.85-26.34-17.22-6.02-34.85-11.99-52.8-14.52-33.6-4.73-67.26-3.03-99.57,8.79-8.08,2.96-16.06,7.25-22.78,12.58-9.31,7.39-9.02,16.44.96,23.07,8.81,5.86,18.62,11.56,28.76,13.78,19.22,4.2,38.99,5.93,58.55,8.52,3.25.43,6.61.06,10.95.06,0,4.13,0,7.16,0,10.19Z"/>
  <g>
    <path class="cls-2" d="M169.07,102.04c-4.21-5.71-7.26-11.96-8.03-18.31-.77-6.34,1.18-12.39,5.28-17.02,4.24-4.79,10.03-9.45,14.1-15.71,2.03-3.1,3.82-6.81,3.73-10.93-.18-4.18-2.8-7.52-5.75-9.38,2.05,2.94,3.27,6.21,2.63,9.19-.57,2.98-2.48,5.62-4.58,8.09-4.37,4.98-9.79,8.95-14.96,14.51-2.5,2.99-4.51,6.57-5.48,10.48-.9,3.9-.93,8,.12,11.73,1.95,7.51,6.92,13.61,12.92,17.36Z"/>
    <path class="cls-2" d="M216.29,44.27c-1.71,2.14-3.46,4.08-5.62,6-2.18,2.02-4.55,4.08-7.03,6.23-4.86,4.36-10.28,9.31-14.36,16.16-4.13,6.79-5.93,15.49-4.8,23.12.98,7.73,4.2,14.55,8.39,20.2,4.28,5.61,9.46,10.29,15.43,13.4-7.12-11.22-11.75-23.39-11.11-34.23.35-5.4,2-9.98,4.99-14.08,2.98-4.16,7.29-8.05,12.12-12.27,9.31-7.95,22.4-20.73,20.75-38.6-.52-4.33-2.32-8.64-5.05-11.82-2.71-3.21-5.95-5.38-9.07-6.95-6.33-3.11-12.24-4.63-17.96-8.16,3.16,6.12,9.19,10.33,13.41,14.69,4.49,4.34,6.5,8.64,6,12.96-.34,4.34-2.75,9.12-6.1,13.36Z"/>
  </g>
  <g>
    <path class="cls-1" d="M82.2,210.05c5.76-16.63,32.93-20.14,47.87-22.23,30.73-3.39,61.42-2.49,91.8,2.26,7.53,1.26,15.02,2.81,22.34,5,7.23,2.24,14.61,4.89,20.56,9.67-6.37-4.09-13.8-5.9-21.13-7.36-7.36-1.38-14.83-2.13-22.31-2.59-29.65-1.52-59.98.75-88.84,7.06-7.11,1.64-14.15,3.6-20.52,6.19-3.89,1.65-8.44,3.64-11.21,6.67-.58.67-.58,1.11-.36.76l-18.21-5.43h0Z"/>
    <path class="cls-1" d="M82.2,236.05c5.76-16.63,32.93-20.14,47.87-22.23,30.73-3.39,61.42-2.49,91.8,2.26,7.53,1.26,15.02,2.81,22.34,5,7.23,2.24,14.61,4.89,20.56,9.67-6.37-4.09-13.8-5.9-21.13-7.36-7.36-1.38-14.83-2.13-22.31-2.59-29.65-1.52-59.98.75-88.84,7.06-7.11,1.64-14.15,3.6-20.52,6.19-3.89,1.65-8.44,3.64-11.21,6.67-.58.67-.58,1.11-.36.76l-18.21-5.43h0Z"/>
  </g>
  <ellipse class="cls-3" cx="85.5" cy="302.5" rx="70" ry="64"/>
</svg>