<?xml version="1.0" standalone="no"?>
<!DOCTYPE svg PUBLIC "-//W3C//DTD SVG 20010904//EN"
 "http://www.w3.org/TR/2001/REC-SVG-20010904/DTD/svg10.dtd">
<svg version="1.0" xmlns="http://www.w3.org/2000/svg"
 width="203.000000pt" height="217.000000pt" viewBox="0 0 203.000000 217.000000"
 preserveAspectRatio="xMidYMid meet">

<g transform="translate(0.000000,217.000000) scale(0.100000,-0.100000)"
fill="#000000" stroke="none">
<path d="M978 2143 c7 -3 16 -2 19 1 4 3 -2 6 -13 5 -11 0 -14 -3 -6 -6z"/>
<path d="M900 2125 c-14 -8 -20 -14 -15 -14 6 0 21 6 35 14 14 8 21 14 15 14
-5 0 -21 -6 -35 -14z"/>
<path d="M978 2123 c7 -3 16 -2 19 1 4 3 -2 6 -13 5 -11 0 -14 -3 -6 -6z"/>
<path d="M1037 2118 c2 -5 13 -8 24 -8 10 0 19 3 19 8 0 4 -11 7 -24 7 -13 0
-22 -3 -19 -7z"/>
<path d="M937 2109 c7 -7 15 -10 18 -7 3 3 -2 9 -12 12 -14 6 -15 5 -6 -5z"/>
<path d="M1100 2116 c0 -2 8 -10 18 -17 15 -13 16 -12 3 4 -13 16 -21 21 -21
13z"/>
<path d="M850 2063 c0 -6 -8 -13 -17 -15 -15 -3 -14 -5 4 -10 27 -7 36 2 22
22 -5 9 -9 10 -9 3z"/>
<path d="M1122 2053 c-6 -12 -5 -29 4 -48 13 -30 13 -30 11 17 -1 27 -3 48 -4
48 -1 0 -6 -8 -11 -17z"/>
<path d="M1155 2005 c0 -13 3 -21 8 -18 4 2 7 10 7 18 0 8 -3 16 -7 18 -5 3
-8 -5 -8 -18z"/>
<path d="M780 1985 c-7 -9 -11 -17 -9 -20 3 -2 10 5 17 15 14 24 10 26 -8 5z"/>
<path d="M1100 1978 c-16 -26 -22 -50 -10 -43 5 3 10 0 12 -7 3 -8 9 -8 22 -1
13 7 15 13 7 17 -6 4 -11 2 -11 -4 0 -7 -5 -6 -14 2 -16 15 -10 32 9 24 8 -3
11 2 8 15 -6 23 -5 24 -23 -3z"/>
<path d="M816 1975 c-9 -26 -7 -32 5 -12 6 10 9 21 6 23 -2 3 -7 -2 -11 -11z"/>
<path d="M765 1939 c-4 -6 -5 -12 -2 -15 2 -3 7 2 10 11 7 17 1 20 -8 4z"/>
<path d="M980 1921 c0 -7 -5 -9 -12 -5 -7 5 -8 3 -3 -5 5 -9 10 -10 18 -2 6 6
8 14 4 18 -4 3 -7 1 -7 -6z"/>
<path d="M1030 1926 c0 -2 8 -10 18 -17 15 -13 16 -12 3 4 -13 16 -21 21 -21
13z"/>
<path d="M1000 1909 c0 -5 5 -7 10 -4 6 3 10 8 10 11 0 2 -4 4 -10 4 -5 0 -10
-5 -10 -11z"/>
<path d="M801 1894 c0 -11 3 -14 6 -6 3 7 2 16 -1 19 -3 4 -6 -2 -5 -13z"/>
<path d="M1025 1890 c6 -10 1 -11 -21 -7 -27 6 -27 6 -6 -5 26 -13 55 3 31 17
-8 6 -10 4 -4 -5z"/>
<path d="M816 1812 c-3 -6 1 -13 10 -16 8 -3 12 -11 8 -17 -4 -8 -3 -9 5 -5 9
6 9 12 -1 24 -7 10 -13 18 -14 20 -1 2 -5 -1 -8 -6z"/>
<path d="M785 1800 c-3 -5 -1 -10 4 -10 6 0 11 5 11 10 0 6 -2 10 -4 10 -3 0
-8 -4 -11 -10z"/>
<path d="M1320 1796 c0 -2 7 -7 16 -10 8 -3 12 -2 9 4 -6 10 -25 14 -25 6z"/>
<path d="M1385 1785 c24 -11 26 -14 10 -15 -19 -1 -18 -2 3 -10 12 -5 22 -15
22 -21 0 -7 3 -9 6 -6 4 4 1 13 -6 22 -10 12 -10 15 1 15 19 1 -32 29 -51 29
-8 0 -1 -6 15 -14z"/>
<path d="M1270 1769 c0 -5 -4 -8 -9 -4 -12 7 -30 -25 -24 -42 3 -7 10 -13 16
-13 8 0 8 3 0 11 -13 13 -6 42 8 33 5 -3 6 -11 3 -17 -4 -7 -3 -9 1 -4 10 8
18 47 10 47 -3 0 -5 -5 -5 -11z"/>
<path d="M1315 1770 c-3 -5 -1 -10 4 -10 6 0 11 5 11 10 0 6 -2 10 -4 10 -3 0
-8 -4 -11 -10z"/>
<path d="M864 1761 c4 -7 -7 -9 -31 -6 -25 3 -33 2 -24 -4 8 -5 20 -7 28 -4 7
3 13 0 13 -5 0 -6 10 -9 21 -7 30 6 31 9 7 24 -11 7 -17 8 -14 2z"/>
<path d="M893 1718 c1 -7 -4 -12 -11 -10 -8 1 -11 -2 -7 -8 5 -8 11 -8 21 1 7
6 11 15 8 20 -8 13 -14 11 -11 -3z"/>
<path d="M920 1727 c0 -2 6 -10 14 -16 11 -9 16 -9 22 1 4 7 4 10 -1 6 -4 -4
-14 -3 -22 3 -7 6 -13 9 -13 6z"/>
<path d="M1417 1680 c-14 -23 -21 -38 -16 -34 6 4 15 1 19 -6 5 -9 9 -9 14 -1
4 6 2 11 -4 11 -6 0 -8 5 -5 10 4 6 10 8 15 5 5 -3 11 -1 15 5 3 5 -1 10 -10
10 -13 0 -14 4 -5 20 18 34 5 22 -23 -20z"/>
<path d="M970 1675 c-14 -8 -20 -14 -14 -15 5 0 19 7 30 15 24 18 16 19 -16 0z"/>
<path d="M1060 1676 c0 -2 7 -7 16 -10 8 -3 12 -2 9 4 -6 10 -25 14 -25 6z"/>
<path d="M1103 1645 c0 -8 4 -15 7 -15 4 0 10 -14 14 -32 3 -17 8 -29 11 -27
6 7 -14 77 -24 83 -4 3 -8 -1 -8 -9z"/>
<path d="M1213 1635 c-3 -9 -3 -18 -1 -21 3 -3 8 4 11 16 6 23 -1 27 -10 5z"/>
<path d="M1070 1626 c0 -2 8 -10 18 -17 15 -13 16 -12 3 4 -13 16 -21 21 -21
13z"/>
<path d="M1375 1620 c-13 -6 -15 -9 -5 -9 8 0 22 4 30 9 18 12 2 12 -25 0z"/>
<path d="M1110 1548 c0 -16 5 -28 10 -28 13 0 13 20 0 40 -8 12 -10 9 -10 -12z"/>
<path d="M28 1331 c-11 -14 -11 -14 2 -5 8 7 53 12 99 12 46 1 86 3 88 6 3 3
-36 5 -86 4 -71 0 -93 -4 -103 -17z"/>
<path d="M1098 1343 c7 -3 16 -2 19 1 4 3 -2 6 -13 5 -11 0 -14 -3 -6 -6z"/>
<path d="M1158 1343 c6 -2 18 -2 25 0 6 3 1 5 -13 5 -14 0 -19 -2 -12 -5z"/>
<path d="M346 1332 c-3 -5 1 -9 9 -9 8 0 15 4 15 9 0 4 -4 8 -9 8 -6 0 -12 -4
-15 -8z"/>
<path d="M980 1330 c-12 -8 -9 -9 12 -8 15 1 24 6 22 10 -7 10 -16 10 -34 -2z"/>
<path d="M1295 1331 c-6 -5 -19 -11 -30 -14 -13 -3 -8 -5 13 -6 23 -1 31 3 26
11 -5 8 0 9 14 6 12 -4 20 -2 16 3 -7 12 -27 12 -39 0z"/>
<path d="M300 1320 c-11 -7 -11 -10 -2 -10 7 0 10 -5 6 -12 -4 -7 -3 -8 5 -4
6 4 9 11 6 16 -3 4 1 11 7 13 7 3 9 6 3 6 -5 0 -17 -4 -25 -9z"/>
<path d="M1378 1323 c6 -2 18 -2 25 0 6 3 1 5 -13 5 -14 0 -19 -2 -12 -5z"/>
<path d="M930 1309 c0 -5 5 -7 10 -4 6 3 10 8 10 11 0 2 -4 4 -10 4 -5 0 -10
-5 -10 -11z"/>
<path d="M1025 1310 c-3 -6 1 -7 9 -4 18 7 21 14 7 14 -6 0 -13 -4 -16 -10z"/>
<path d="M538 1303 c7 -3 16 -2 19 1 4 3 -2 6 -13 5 -11 0 -14 -3 -6 -6z"/>
<path d="M988 1303 c7 -3 16 -2 19 1 4 3 -2 6 -13 5 -11 0 -14 -3 -6 -6z"/>
<path d="M1388 1303 c7 -3 16 -2 19 1 4 3 -2 6 -13 5 -11 0 -14 -3 -6 -6z"/>
<path d="M258 1293 c6 -2 18 -2 25 0 6 3 1 5 -13 5 -14 0 -19 -2 -12 -5z"/>
<path d="M590 1290 c13 -10 11 -11 -7 -7 -20 4 -21 3 -12 -15 9 -16 17 -19 42
-14 31 5 31 5 12 -11 -16 -12 -16 -14 -3 -10 10 3 20 2 23 -3 4 -6 16 -10 28
-9 21 1 19 2 -23 15 -13 5 -13 6 0 14 13 9 13 10 0 10 -13 0 -13 2 0 11 12 9
11 9 -5 4 -11 -4 -31 -9 -45 -11 -23 -4 -22 -3 5 11 17 8 25 14 18 15 -6 0
-20 3 -30 6 -15 5 -16 4 -3 -6z"/>
<path d="M845 1290 c6 -10 4 -12 -9 -7 -10 4 -15 3 -11 -3 3 -6 0 -10 -7 -10
-10 0 -10 -2 1 -9 12 -8 12 -10 0 -14 -8 -2 -5 -2 6 0 11 3 28 5 37 6 9 1 15
4 12 8 -2 4 2 10 8 13 7 3 2 3 -11 0 -15 -4 -21 -2 -17 4 3 6 1 14 -5 18 -8 5
-9 3 -4 -6z"/>
<path d="M1078 1293 c7 -3 16 -2 19 1 4 3 -2 6 -13 5 -11 0 -14 -3 -6 -6z"/>
<path d="M1248 1293 c6 -2 18 -2 25 0 6 3 1 5 -13 5 -14 0 -19 -2 -12 -5z"/>
<path d="M378 1283 c6 -2 18 -2 25 0 6 3 1 5 -13 5 -14 0 -19 -2 -12 -5z"/>
<path d="M460 1280 c-8 -5 -10 -10 -5 -10 6 0 17 5 25 10 8 5 11 10 5 10 -5 0
-17 -5 -25 -10z"/>
<path d="M505 1279 c-4 -6 -5 -12 -2 -15 2 -3 7 2 10 11 7 17 1 20 -8 4z"/>
<path d="M988 1283 c6 -2 18 -2 25 0 6 3 1 5 -13 5 -14 0 -19 -2 -12 -5z"/>
<path d="M1338 1283 c7 -3 16 -2 19 1 4 3 -2 6 -13 5 -11 0 -14 -3 -6 -6z"/>
<path d="M1506 1282 c-3 -4 4 -9 15 -9 23 -2 25 3 4 10 -8 4 -16 3 -19 -1z"/>
<path d="M1430 1278 c13 -14 49 -27 54 -20 3 5 0 9 -7 9 -7 0 -21 4 -32 8 -11
5 -18 6 -15 3z"/>
<path d="M530 1266 c0 -2 7 -7 16 -10 8 -3 12 -2 9 4 -6 10 -25 14 -25 6z"/>
<path d="M770 1261 c0 -6 4 -13 10 -16 6 -3 7 1 4 9 -7 18 -14 21 -14 7z"/>
<path d="M1505 1250 c-8 -13 5 -13 25 0 13 8 13 10 -2 10 -9 0 -20 -4 -23 -10z"/>
<path d="M753 1235 c0 -8 4 -12 9 -9 5 3 6 10 3 15 -9 13 -12 11 -12 -6z"/>
<path d="M718 1233 c7 -3 16 -2 19 1 4 3 -2 6 -13 5 -11 0 -14 -3 -6 -6z"/>
<path d="M1138 1223 c6 -2 18 -2 25 0 6 3 1 5 -13 5 -14 0 -19 -2 -12 -5z"/>
<path d="M1559 1207 c25 -27 46 -36 39 -16 -2 6 -6 9 -10 7 -3 -2 -16 6 -29
17 -24 20 -24 20 0 -8z"/>
<path d="M703 1200 c-2 -25 9 -32 27 -18 12 8 12 9 -2 4 -10 -3 -18 -1 -18 4
0 16 21 22 36 9 12 -10 12 -14 1 -28 -23 -27 -27 -38 -12 -38 8 0 12 4 9 9 -3
4 8 25 23 45 15 21 20 32 10 24 -14 -11 -21 -11 -29 -3 -19 19 -44 14 -45 -8z"/>
<path d="M1069 1207 c5 -5 28 -7 52 -5 l44 3 -52 5 c-29 3 -48 1 -44 -3z"/>
<path d="M1183 1203 c9 -2 23 -2 30 0 6 3 -1 5 -18 5 -16 0 -22 -2 -12 -5z"/>
<path d="M1268 1193 c6 -2 18 -2 25 0 6 3 1 5 -13 5 -14 0 -19 -2 -12 -5z"/>
<path d="M1377 1193 c-10 -9 -9 -23 1 -23 5 0 9 7 9 15 0 17 -1 18 -10 8z"/>
<path d="M1615 1190 c-3 -5 -1 -10 4 -10 6 0 11 5 11 10 0 6 -2 10 -4 10 -3 0
-8 -4 -11 -10z"/>
<path d="M1440 1180 c0 -5 1 -13 1 -17 3 -12 59 -34 59 -23 0 5 -8 11 -17 13
-16 4 -16 5 -2 6 9 0 20 8 23 16 5 14 4 14 -16 0 -29 -19 -49 -19 -42 0 4 8 3
15 0 15 -3 0 -6 -4 -6 -10z"/>
<path d="M1516 1163 c-6 -14 -5 -15 5 -6 7 7 10 15 7 18 -3 3 -9 -2 -12 -12z"/>
<path d="M1554 1151 c14 -16 23 -18 37 -10 11 5 19 15 19 22 0 7 -4 6 -10 -3
-5 -8 -10 -10 -10 -5 0 6 -5 3 -10 -5 -5 -8 -10 -10 -10 -4 0 7 -8 15 -17 18
-15 6 -15 5 1 -13z"/>
<path d="M1520 1140 c-12 -7 -10 -9 7 -7 12 0 19 5 17 9 -6 10 -6 10 -24 -2z"/>
<path d="M1606 1124 c-23 -23 -20 -30 4 -9 11 10 20 20 20 22 0 7 -9 2 -24
-13z"/>
<path d="M1180 1122 c0 -4 18 -6 40 -4 22 2 40 6 40 8 0 2 -18 4 -40 4 -22 0
-40 -3 -40 -8z"/>
<path d="M1118 1113 c7 -3 16 -2 19 1 4 3 -2 6 -13 5 -11 0 -14 -3 -6 -6z"/>
<path d="M1358 1113 c7 -3 16 -2 19 1 4 3 -2 6 -13 5 -11 0 -14 -3 -6 -6z"/>
<path d="M1010 1100 c-22 -7 -21 -8 13 -9 23 -1 36 3 32 9 -7 11 -10 11 -45 0z"/>
<path d="M1395 1100 c3 -5 8 -10 11 -10 2 0 4 5 4 10 0 6 -5 10 -11 10 -5 0
-7 -4 -4 -10z"/>
<path d="M1505 1099 c-4 -6 -5 -12 -2 -15 2 -3 7 2 10 11 7 17 1 20 -8 4z"/>
<path d="M1325 1089 c-25 -7 -23 -7 13 -4 25 3 42 1 42 -5 0 -5 10 -10 23 -10
20 0 20 1 -7 15 -15 8 -31 14 -35 14 -3 -1 -19 -5 -36 -10z"/>
<path d="M1450 1070 c0 -5 5 -10 11 -10 5 0 7 5 4 10 -3 6 -8 10 -11 10 -2 0
-4 -4 -4 -10z"/>
<path d="M1638 1048 c5 -5 16 -8 23 -6 8 3 3 7 -10 11 -17 4 -21 3 -13 -5z"/>
<path d="M743 970 c0 -47 2 -66 4 -42 2 23 2 61 0 85 -2 23 -4 4 -4 -43z"/>
<path d="M1238 1043 c6 -2 18 -2 25 0 6 3 1 5 -13 5 -14 0 -19 -2 -12 -5z"/>
<path d="M1146 1025 c-9 -26 -7 -32 5 -12 6 10 9 21 6 23 -2 3 -7 -2 -11 -11z"/>
<path d="M1368 1023 c7 -3 16 -2 19 1 4 3 -2 6 -13 5 -11 0 -14 -3 -6 -6z"/>
<path d="M1735 1020 c-16 -7 -17 -9 -3 -9 9 -1 20 4 23 9 7 11 7 11 -20 0z"/>
<path d="M1780 1020 c8 -5 22 -9 30 -9 10 0 8 3 -5 9 -27 12 -43 12 -25 0z"/>
<path d="M1166 1003 c-6 -14 -5 -15 5 -6 7 7 10 15 7 18 -3 3 -9 -2 -12 -12z"/>
<path d="M1318 1013 c6 -2 18 -2 25 0 6 3 1 5 -13 5 -14 0 -19 -2 -12 -5z"/>
<path d="M1792 980 c12 -16 25 -30 30 -30 4 0 -4 14 -19 30 -14 17 -28 30 -30
30 -2 0 6 -13 19 -30z"/>
<path d="M1826 985 c10 -8 23 -15 28 -15 6 0 1 7 -10 15 -10 8 -23 15 -28 15
-6 0 -1 -7 10 -15z"/>
<path d="M1140 696 c0 -157 3 -287 8 -289 4 -3 6 121 4 276 -2 219 0 282 10
289 10 6 8 8 -4 8 -17 0 -18 -20 -18 -284z"/>
<path d="M1184 750 c0 -129 2 -182 3 -117 2 64 2 170 0 235 -1 64 -3 11 -3
-118z"/>
<path d="M1600 955 c0 -8 4 -15 8 -15 5 0 9 7 9 15 0 8 -4 15 -9 15 -4 0 -8
-7 -8 -15z"/>
<path d="M1653 963 c-13 -2 -23 -8 -23 -13 0 -10 38 -1 46 11 3 5 4 8 2 8 -2
-1 -13 -4 -25 -6z"/>
<path d="M1768 957 c7 -7 9 -17 5 -21 -4 -4 1 -4 11 0 12 4 17 4 13 -2 -3 -5
3 -10 14 -10 10 0 19 1 19 2 0 1 -17 12 -37 24 -20 12 -31 15 -25 7z"/>
<path d="M1930 925 c13 -14 26 -25 28 -25 3 0 -5 11 -18 25 -13 14 -26 25 -28
25 -3 0 5 -11 18 -25z"/>
<path d="M1914 896 c-3 -9 -11 -13 -17 -9 -6 4 -7 1 -2 -7 6 -10 11 -9 21 4
11 16 13 16 23 -1 6 -10 11 -13 11 -7 0 6 -7 17 -15 24 -12 10 -16 9 -21 -4z"/>
<path d="M53 850 c0 -25 2 -35 4 -22 2 12 2 32 0 45 -2 12 -4 2 -4 -23z"/>
<path d="M1920 860 c0 -5 5 -10 11 -10 5 0 7 5 4 10 -3 6 -8 10 -11 10 -2 0
-4 -4 -4 -10z"/>
<path d="M1895 838 c1 -12 7 -23 14 -24 6 -1 7 0 2 2 -6 3 -8 11 -5 19 3 7 1
15 -4 19 -5 3 -8 -5 -7 -16z"/>
<path d="M1955 830 c3 -5 8 -10 11 -10 2 0 4 5 4 10 0 6 -5 10 -11 10 -5 0 -7
-4 -4 -10z"/>
<path d="M743 770 c0 -25 2 -35 4 -22 2 12 2 32 0 45 -2 12 -4 2 -4 -23z"/>
<path d="M1885 539 c2 -16 1 -28 -3 -25 -5 3 -14 0 -22 -5 -11 -7 -9 -8 9 -6
14 2 27 9 29 16 3 9 8 9 20 -1 15 -12 16 -11 3 4 -7 10 -18 15 -23 11 -6 -3
-8 0 -6 8 3 8 12 13 19 11 8 -2 10 0 6 4 -20 20 -35 11 -32 -17z"/>
<path d="M1945 562 c3 -3 -1 -12 -7 -21 -8 -10 -4 -9 10 3 26 23 26 23 7 23
-8 0 -13 -3 -10 -5z"/>
<path d="M1182 470 c0 -14 2 -19 5 -12 2 6 2 18 0 25 -3 6 -5 1 -5 -13z"/>
<path d="M1253 455 c0 -22 2 -30 4 -17 2 12 2 30 0 40 -3 9 -5 -1 -4 -23z"/>
<path d="M1829 469 c-23 -19 -23 -20 -2 -10 12 6 25 16 28 21 10 16 -1 12 -26
-11z"/>
<path d="M1853 455 c-7 -8 -9 -16 -4 -19 5 -3 12 1 15 10 8 22 4 25 -11 9z"/>
<path d="M1610 435 c-7 -9 -11 -17 -9 -20 3 -2 10 5 17 15 14 24 10 26 -8 5z"/>
<path d="M1766 435 c-3 -8 -12 -12 -21 -9 -8 3 -15 1 -15 -4 0 -16 21 -26 29
-14 4 7 12 6 23 -2 10 -7 15 -16 11 -19 -3 -4 -2 -7 3 -7 12 0 34 21 34 32 0
4 -13 14 -29 22 -25 14 -30 14 -35 1z m44 -15 c24 -15 7 -18 -20 -3 -14 7 -18
13 -10 13 8 0 22 -4 30 -10z"/>
<path d="M715 400 c-3 -5 -2 -17 3 -27 9 -14 11 -13 22 8 13 23 12 23 -5 9
-17 -14 -18 -13 -12 3 7 18 2 23 -8 7z"/>
<path d="M1050 376 c0 -8 48 -12 66 -6 13 5 5 8 -23 8 -24 0 -43 -1 -43 -2z"/>
<path d="M90 348 c0 -11 12 -10 30 2 12 7 10 9 -8 7 -12 0 -22 -5 -22 -9z"/>
<path d="M153 353 c9 -2 25 -2 35 0 9 3 1 5 -18 5 -19 0 -27 -2 -17 -5z"/>
<path d="M930 355 c0 -5 5 -17 10 -25 5 -8 10 -10 10 -5 0 6 -5 17 -10 25 -5
8 -10 11 -10 5z"/>
<path d="M1041 344 c7 -9 5 -14 -8 -17 -15 -4 -14 -5 3 -6 23 -1 52 25 40 36
-3 3 -6 1 -6 -5 0 -7 -5 -12 -11 -12 -5 0 -8 4 -5 8 3 5 -1 9 -9 9 -11 0 -12
-4 -4 -13z"/>
<path d="M1105 351 c-3 -5 0 -13 6 -17 7 -4 9 -3 5 4 -3 6 2 13 11 15 16 4 16
5 1 6 -9 0 -19 -3 -23 -8z"/>
<path d="M1768 353 c7 -3 16 -2 19 1 4 3 -2 6 -13 5 -11 0 -14 -3 -6 -6z"/>
<path d="M348 343 c7 -3 16 -2 19 1 4 3 -2 6 -13 5 -11 0 -14 -3 -6 -6z"/>
<path d="M448 333 c7 -3 16 -2 19 1 4 3 -2 6 -13 5 -11 0 -14 -3 -6 -6z"/>
<path d="M20 325 c0 -2 8 -9 17 -16 11 -10 14 -10 9 -1 -4 6 -2 12 3 12 6 0
11 -5 11 -11 0 -7 36 -9 105 -8 57 2 102 5 99 8 -3 3 -45 4 -95 2 -49 -1 -95
2 -102 7 -10 8 -47 13 -47 7z"/>
<path d="M308 318 c5 -5 16 -8 23 -6 8 3 3 7 -10 11 -17 4 -21 3 -13 -5z"/>
<path d="M390 310 c-6 -11 -8 -20 -6 -20 3 0 10 9 16 20 6 11 8 20 6 20 -3 0
-10 -9 -16 -20z"/>
<path d="M838 321 c11 -7 11 -9 -2 -14 -9 -4 -22 -4 -30 -1 -19 7 -27 -8 -14
-26 8 -12 9 -11 4 4 -5 14 -2 17 10 12 8 -3 24 -1 35 5 11 6 26 7 33 2 6 -4 3
0 -7 10 -11 9 -24 17 -31 17 -7 0 -6 -4 2 -9z"/>
<path d="M1178 305 c-3 -14 -1 -25 3 -25 5 0 9 11 9 25 0 14 -2 25 -4 25 -2 0
-6 -11 -8 -25z"/>
<path d="M1688 323 c7 -3 16 -2 19 1 4 3 -2 6 -13 5 -11 0 -14 -3 -6 -6z"/>
<path d="M455 310 c11 -5 27 -9 35 -9 9 0 8 4 -5 9 -11 5 -27 9 -35 9 -9 0 -8
-4 5 -9z"/>
<path d="M555 311 c-3 -6 -1 -11 5 -11 7 0 9 -7 6 -16 -6 -14 -4 -15 9 -4 9 7
12 16 8 19 -4 4 -11 10 -14 14 -4 5 -10 4 -14 -2z"/>
<path d="M731 304 c0 -11 3 -14 6 -6 3 7 2 16 -1 19 -3 4 -6 -2 -5 -13z"/>
<path d="M1596 303 c-6 -14 -5 -15 5 -6 7 7 10 15 7 18 -3 3 -9 -2 -12 -12z"/>
<path d="M1144 210 c0 -58 1 -81 3 -53 2 29 2 77 0 106 -2 28 -3 5 -3 -53z"/>
<path d="M528 283 c7 -3 16 -2 19 1 4 3 -2 6 -13 5 -11 0 -14 -3 -6 -6z"/>
<path d="M610 279 c0 -5 5 -7 10 -4 6 3 10 8 10 11 0 2 -4 4 -10 4 -5 0 -10
-5 -10 -11z"/>
<path d="M663 275 c0 -7 6 -11 14 -8 7 3 13 6 13 8 0 2 -6 5 -13 8 -8 3 -14
-1 -14 -8z"/>
<path d="M705 280 c-3 -5 -1 -10 4 -10 6 0 11 5 11 10 0 6 -2 10 -4 10 -3 0
-8 -4 -11 -10z"/>
<path d="M815 270 c-3 -6 1 -7 9 -4 18 7 21 14 7 14 -6 0 -13 -4 -16 -10z"/>
<path d="M676 232 c-3 -5 1 -9 9 -9 8 0 12 4 9 9 -3 4 -7 8 -9 8 -2 0 -6 -4
-9 -8z"/>
<path d="M1183 190 c0 -25 2 -35 4 -22 2 12 2 32 0 45 -2 12 -4 2 -4 -23z"/>
<path d="M1557 150 c-9 -11 -13 -20 -7 -20 5 0 14 9 20 20 6 11 9 20 8 20 -2
0 -11 -9 -21 -20z"/>
<path d="M1520 109 c0 -5 5 -7 10 -4 6 3 10 8 10 11 0 2 -4 4 -10 4 -5 0 -10
-5 -10 -11z"/>
<path d="M1260 81 c0 -6 4 -13 10 -16 6 -3 7 1 4 9 -7 18 -14 21 -14 7z"/>
<path d="M1320 61 c0 -5 7 -12 16 -15 14 -5 15 -4 4 9 -14 17 -20 19 -20 6z"/>
<path d="M1268 43 c7 -3 16 -2 19 1 4 3 -2 6 -13 5 -11 0 -14 -3 -6 -6z"/>
</g>
</svg>
