<?xml version="1.0" standalone="no"?>
<!DOCTYPE svg PUBLIC "-//W3C//DTD SVG 20010904//EN"
 "http://www.w3.org/TR/2001/REC-SVG-20010904/DTD/svg10.dtd">
<svg version="1.0" xmlns="http://www.w3.org/2000/svg"
 width="167.000000pt" height="187.000000pt" viewBox="0 0 167.000000 187.000000"
 preserveAspectRatio="xMidYMid meet">

<g transform="translate(0.000000,187.000000) scale(0.100000,-0.100000)"
fill="#000000" stroke="none">
<path d="M981 1804 c0 -11 3 -14 6 -6 3 7 2 16 -1 19 -3 4 -6 -2 -5 -13z"/>
<path d="M796 1671 c-3 -5 1 -11 9 -14 9 -4 12 -1 8 9 -6 16 -10 17 -17 5z"/>
<path d="M780 1630 c0 -6 7 -10 15 -10 8 0 15 2 15 4 0 2 -7 6 -15 10 -8 3
-15 1 -15 -4z"/>
<path d="M1215 1620 c-3 -5 -1 -10 4 -10 6 0 11 5 11 10 0 6 -2 10 -4 10 -3 0
-8 -4 -11 -10z"/>
<path d="M1233 1505 c0 -22 2 -30 4 -17 2 12 2 30 0 40 -3 9 -5 -1 -4 -23z"/>
<path d="M770 1475 c0 -8 4 -15 10 -15 5 0 7 7 4 15 -4 8 -8 15 -10 15 -2 0
-4 -7 -4 -15z"/>
<path d="M790 1486 c0 -2 7 -6 15 -10 8 -3 15 -1 15 4 0 6 -7 10 -15 10 -8 0
-15 -2 -15 -4z"/>
<path d="M328 1129 c-15 -8 -18 -24 -18 -89 0 -89 5 -84 -93 -93 -69 -7 -135
-51 -169 -112 -52 -94 -33 -224 40 -292 43 -40 83 -56 151 -62 71 -7 72 -8 90
-86 37 -163 169 -299 340 -351 68 -20 545 -20 624 1 166 43 294 170 345 340
11 39 16 128 19 389 5 318 4 341 -13 353 -23 17 -1288 19 -1316 2z m1250 -71
c15 -15 17 -513 2 -608 -12 -73 -46 -151 -85 -193 -29 -30 -45 -28 -45 6 0 17
-2 19 -10 7 -5 -9 -5 -19 1 -26 9 -12 -21 -40 -61 -57 -8 -4 -26 -15 -40 -24
-13 -10 -21 -12 -16 -5 4 6 2 12 -3 12 -6 0 -11 -9 -11 -20 0 -28 -27 -38
-105 -39 -39 0 -94 -3 -122 -7 l-53 -6 0 321 0 321 -100 0 -100 0 -1 -37 c-4
-142 -9 -396 -9 -490 l0 -113 -43 0 c-24 0 -69 8 -99 18 -60 20 -148 68 -148
81 0 9 -21 35 -75 93 -21 23 -41 61 -54 103 -19 61 -21 92 -21 364 0 164 3
301 7 304 3 4 270 7 593 7 442 0 589 -3 598 -12z m-1270 -347 l-3 -166 -49 3
c-66 4 -113 27 -143 74 -49 73 -28 186 44 233 26 18 117 35 141 27 10 -3 12
-43 10 -171z"/>
<path d="M827 944 c-4 -4 -7 -23 -7 -43 l0 -36 106 3 105 3 -3 37 -3 37 -95 3
c-53 1 -99 0 -103 -4z"/>
<path d="M1355 920 c3 -5 11 -10 16 -10 6 0 7 5 4 10 -3 6 -11 10 -16 10 -6 0
-7 -4 -4 -10z"/>
<path d="M1420 908 c0 -4 4 -8 9 -8 6 0 12 4 15 8 3 5 -1 9 -9 9 -8 0 -15 -4
-15 -9z"/>
<path d="M820 808 c0 -16 12 -18 105 -18 95 0 105 2 105 18 0 17 -9 19 -105
18 -93 -1 -105 -3 -105 -18z"/>
<path d="M1310 809 c0 -5 5 -7 10 -4 6 3 10 8 10 11 0 2 -4 4 -10 4 -5 0 -10
-5 -10 -11z"/>
<path d="M1338 723 c6 -2 18 -2 25 0 6 3 1 5 -13 5 -14 0 -19 -2 -12 -5z"/>
<path d="M1310 472 c0 -95 3 -172 8 -172 9 0 8 327 -1 337 -4 3 -7 -71 -7
-165z"/>
<path d="M1310 271 c0 -25 6 -27 13 -6 4 8 2 17 -3 20 -6 4 -10 -3 -10 -14z"/>
<path d="M1400 230 c0 -5 5 -10 10 -10 6 0 10 5 10 10 0 6 -4 10 -10 10 -5 0
-10 -4 -10 -10z"/>
<path d="M1370 220 c0 -5 5 -10 10 -10 6 0 10 5 10 10 0 6 -4 10 -10 10 -5 0
-10 -4 -10 -10z"/>
<path d="M1340 200 c-9 -6 -10 -10 -3 -10 6 0 15 5 18 10 8 12 4 12 -15 0z"/>
</g>
</svg>
