<?xml version="1.0" encoding="UTF-8"?>
<svg id="Capa_1" data-name="Capa 1" xmlns="http://www.w3.org/2000/svg" viewBox="0 0 595 595">
  <defs>
    <style>
      .cls-1 {
        fill: #ff6cb6;
      }

      .cls-1, .cls-2, .cls-3, .cls-4, .cls-5 {
        stroke-width: 0px;
      }

      .cls-2 {
        fill: #db197a;
      }

      .cls-3 {
        fill: #bf196d;
      }

      .cls-6 {
        stroke-width: 7px;
      }

      .cls-6, .cls-4 {
        fill: #f72585;
      }

      .cls-6, .cls-7 {
        stroke: #f72585;
        stroke-miterlimit: 10;
      }

      .cls-5 {
        fill: #fff;
      }

      .cls-7 {
        fill: none;
        stroke-width: 28px;
      }
    </style>
  </defs>
  <g>
    <path class="cls-4" d="M411.58,104.5c0,17.29.04,34.6-.44,51.84-.36,12.95-17.83,12.66-17.93.23-.26-34.57-.11-69.16.45-103.73.16-10.08,17.08-10.25,17.41-.18.56,17.25.38,34.56.38,51.84.04,0,.08,0,.13,0Z"/>
    <path class="cls-4" d="M359.58,62.5c0,17.29.04,34.6-.44,51.84-.36,12.95-17.83,12.66-17.93.23-.26-34.57-.11-69.16.45-103.73.16-10.08,17.08-10.25,17.41-.18.56,17.25.38,34.56.38,51.84.04,0,.08,0,.13,0Z"/>
    <path class="cls-4" d="M304.58,133.48c0,7.1-.15,14.21-.44,21.3-.36,8.74-17.83,8.41-17.93.09-.16-14.21-.21-28.42.45-42.62.38-8.28,17.3-8.37,17.41-.07.09,7.1.38,14.2.38,21.3.04,0,.08,0,.13,0Z"/>
    <circle class="cls-4" cx="295" cy="77" r="9.5"/>
  </g>
  <g>
    <rect class="cls-2" x="461.26" y="279" width="66.31" height="289" rx="1.21" ry="1.21"/>
    <rect class="cls-5" x="461.26" y="345.11" width="66.31" height="14.1"/>
    <rect class="cls-5" x="461.26" y="489.51" width="66.31" height="14.1"/>
  </g>
  <g>
    <rect class="cls-3" x="378.62" y="279" width="66.31" height="289" rx="1.21" ry="1.21"/>
    <rect class="cls-5" x="378.62" y="345.11" width="66.31" height="14.1"/>
    <rect class="cls-5" x="378.62" y="364.58" width="66.31" height="14.1"/>
  </g>
  <rect class="cls-1" x="195.4" y="270" width="43.6" height="289" rx="1.21" ry="1.21" transform="translate(150.5 -48.68) rotate(19.46)"/>
  <rect class="cls-5" x="223.39" y="315.56" width="43.6" height="39.45" transform="translate(125.71 -62.53) rotate(19.46)"/>
  <path class="cls-6" d="M76.84,439.2c-45.4-8.14-69.39-39.8-69.39-91.55,0-51.75,24-83.41,69.39-91.54,15.31-2.77,30.64-.32,44.92,7.04l4.5,2.32v147.27c0,3.9.15,7.66.37,11.35l.32,5.36-4.76,2.49c-10.6,5.54-21.74,8.36-33.11,8.36-4.05,0-8.17-.37-12.24-1.1ZM109.64,412.75v-136.92c-9.68-4.03-19.74-5.18-29.87-3.36-37.49,6.72-55.71,31.31-55.71,75.19,0,43.88,18.22,68.48,55.72,75.2,10.21,1.84,20.31.64,29.99-3.41-.08-2.2-.12-4.43-.12-6.7Z"/>
  <path class="cls-7" d="M217.49,578.99c-42.96-10.38-96.88-53.06-96.88-143.02,0-78.43,0-229.73,0-229.73h456.39s0,151.3,0,229.73c0,89.96-53.92,132.64-96.88,143.02H217.49Z"/>
  <g>
    <rect class="cls-4" x="282.46" y="279" width="77.56" height="289" rx="1.21" ry="1.21"/>
    <rect class="cls-5" x="282.46" y="305.61" width="77.56" height="28.2"/>
    <rect class="cls-5" x="282.46" y="312.66" width="77.56" height="14.1"/>
    <rect class="cls-5" x="282.46" y="345.11" width="77.56" height="14.1"/>
  </g>
</svg>